STARTFONT 2.1
FONT -FontForge-Small Fonts-Normal-R-Normal--12-70-120-120-P-60-WinRoman-0
SIZE 7 120 120
FONTBOUNDINGBOX 12 13 0 -2
COMMENT "Generated by fontforge, http://fontforge.sourceforge.net"
COMMENT "(c) Copyright Microsoft Corp. 1987. All rights reserved."
STARTPROPERTIES 34
FOUNDRY "FontForge"
FAMILY_NAME "Small Fonts"
WEIGHT_NAME "Normal"
SLANT "R"
SETWIDTH_NAME "Normal"
ADD_STYLE_NAME ""
PIXEL_SIZE 12
POINT_SIZE 70
RESOLUTION_X 120
RESOLUTION_Y 120
SPACING "P"
AVERAGE_WIDTH 60
CHARSET_REGISTRY "WinRoman"
CHARSET_ENCODING "0"
FONTNAME_REGISTRY ""
CHARSET_COLLECTIONS "WinRoman"
FONT_NAME "SmallFonts"
FACE_NAME "Small Fonts"
COPYRIGHT "(c) Copyright Microsoft Corp. 1987. All rights reserved."
FONT_VERSION "001.000"
FONT_ASCENT 10
FONT_DESCENT 2
UNDERLINE_POSITION -1
UNDERLINE_THICKNESS 1
X_HEIGHT 5
CAP_HEIGHT 8
RAW_ASCENT 800
RAW_DESCENT 200
NORM_SPACE 3
RELATIVE_WEIGHT 40
RELATIVE_SETWIDTH 50
FIGURE_WIDTH 6
AVG_LOWERCASE_WIDTH 59
AVG_UPPERCASE_WIDTH 74
ENDPROPERTIES
CHARS 224
STARTCHAR space
ENCODING 32
SWIDTH 250 0
DWIDTH 3 0
BBX 1 1 2 -2
BITMAP
00
ENDCHAR
STARTCHAR exclam
ENCODING 33
SWIDTH 250 0
DWIDTH 3 0
BBX 1 9 1 0
BITMAP
80
80
80
80
80
80
80
00
80
ENDCHAR
STARTCHAR quotedbl
ENCODING 34
SWIDTH 333 0
DWIDTH 4 0
BBX 3 3 1 6
BITMAP
A0
A0
A0
ENDCHAR
STARTCHAR numbersign
ENCODING 35
SWIDTH 583 0
DWIDTH 7 0
BBX 6 9 1 0
BITMAP
48
48
FC
48
48
48
FC
48
48
ENDCHAR
STARTCHAR dollar
ENCODING 36
SWIDTH 500 0
DWIDTH 6 0
BBX 5 10 1 -1
BITMAP
20
70
A8
A0
60
30
28
A8
70
20
ENDCHAR
STARTCHAR percent
ENCODING 37
SWIDTH 833 0
DWIDTH 10 0
BBX 9 9 1 0
BITMAP
6080
9100
6200
0400
0800
1000
2300
4480
8300
ENDCHAR
STARTCHAR ampersand
ENCODING 38
SWIDTH 667 0
DWIDTH 8 0
BBX 7 9 1 0
BITMAP
60
90
90
60
64
94
88
8C
72
ENDCHAR
STARTCHAR quotesingle
ENCODING 39
SWIDTH 250 0
DWIDTH 3 0
BBX 1 3 1 6
BITMAP
80
80
80
ENDCHAR
STARTCHAR parenleft
ENCODING 40
SWIDTH 333 0
DWIDTH 4 0
BBX 2 11 1 -2
BITMAP
40
80
80
80
80
80
80
80
80
80
40
ENDCHAR
STARTCHAR parenright
ENCODING 41
SWIDTH 333 0
DWIDTH 4 0
BBX 2 11 1 -2
BITMAP
80
40
40
40
40
40
40
40
40
40
80
ENDCHAR
STARTCHAR asterisk
ENCODING 42
SWIDTH 417 0
DWIDTH 5 0
BBX 4 3 1 5
BITMAP
F0
60
90
ENDCHAR
STARTCHAR plus
ENCODING 43
SWIDTH 583 0
DWIDTH 7 0
BBX 5 5 1 1
BITMAP
20
20
F8
20
20
ENDCHAR
STARTCHAR comma
ENCODING 44
SWIDTH 250 0
DWIDTH 3 0
BBX 2 2 1 -1
BITMAP
40
80
ENDCHAR
STARTCHAR hyphen
ENCODING 45
SWIDTH 333 0
DWIDTH 4 0
BBX 3 1 1 3
BITMAP
E0
ENDCHAR
STARTCHAR period
ENCODING 46
SWIDTH 250 0
DWIDTH 3 0
BBX 1 1 1 0
BITMAP
80
ENDCHAR
STARTCHAR slash
ENCODING 47
SWIDTH 167 0
DWIDTH 2 0
BBX 2 9 0 0
BITMAP
40
40
40
40
C0
80
80
80
80
ENDCHAR
STARTCHAR zero
ENCODING 48
SWIDTH 500 0
DWIDTH 6 0
BBX 5 9 1 0
BITMAP
70
88
88
88
88
88
88
88
70
ENDCHAR
STARTCHAR one
ENCODING 49
SWIDTH 500 0
DWIDTH 6 0
BBX 2 9 2 0
BITMAP
40
C0
40
40
40
40
40
40
40
ENDCHAR
STARTCHAR two
ENCODING 50
SWIDTH 500 0
DWIDTH 6 0
BBX 5 9 1 0
BITMAP
70
88
08
08
10
20
40
80
F8
ENDCHAR
STARTCHAR three
ENCODING 51
SWIDTH 500 0
DWIDTH 6 0
BBX 5 9 1 0
BITMAP
70
88
08
08
30
08
08
88
70
ENDCHAR
STARTCHAR four
ENCODING 52
SWIDTH 500 0
DWIDTH 6 0
BBX 5 9 1 0
BITMAP
10
30
30
50
50
90
F8
10
10
ENDCHAR
STARTCHAR five
ENCODING 53
SWIDTH 500 0
DWIDTH 6 0
BBX 5 9 1 0
BITMAP
F8
80
80
F0
88
08
08
88
70
ENDCHAR
STARTCHAR six
ENCODING 54
SWIDTH 500 0
DWIDTH 6 0
BBX 5 9 1 0
BITMAP
70
88
80
80
F0
88
88
88
70
ENDCHAR
STARTCHAR seven
ENCODING 55
SWIDTH 500 0
DWIDTH 6 0
BBX 5 9 1 0
BITMAP
F8
08
10
10
20
20
40
40
40
ENDCHAR
STARTCHAR eight
ENCODING 56
SWIDTH 500 0
DWIDTH 6 0
BBX 5 9 1 0
BITMAP
70
88
88
88
70
88
88
88
70
ENDCHAR
STARTCHAR nine
ENCODING 57
SWIDTH 500 0
DWIDTH 6 0
BBX 5 9 1 0
BITMAP
70
88
88
88
78
08
08
88
70
ENDCHAR
STARTCHAR colon
ENCODING 58
SWIDTH 250 0
DWIDTH 3 0
BBX 1 6 1 0
BITMAP
80
00
00
00
00
80
ENDCHAR
STARTCHAR semicolon
ENCODING 59
SWIDTH 250 0
DWIDTH 3 0
BBX 2 7 1 -1
BITMAP
40
00
00
00
00
40
80
ENDCHAR
STARTCHAR less
ENCODING 60
SWIDTH 500 0
DWIDTH 6 0
BBX 4 7 1 0
BITMAP
10
20
40
80
40
20
10
ENDCHAR
STARTCHAR equal
ENCODING 61
SWIDTH 583 0
DWIDTH 7 0
BBX 5 3 1 2
BITMAP
F8
00
F8
ENDCHAR
STARTCHAR greater
ENCODING 62
SWIDTH 500 0
DWIDTH 6 0
BBX 4 7 1 0
BITMAP
80
40
20
10
20
40
80
ENDCHAR
STARTCHAR question
ENCODING 63
SWIDTH 500 0
DWIDTH 6 0
BBX 5 9 1 0
BITMAP
70
88
08
08
10
20
20
00
20
ENDCHAR
STARTCHAR at
ENCODING 64
SWIDTH 917 0
DWIDTH 11 0
BBX 10 10 1 -1
BITMAP
1E00
6180
4080
8E40
9240
9240
8DC0
4000
6000
1F00
ENDCHAR
STARTCHAR A
ENCODING 65
SWIDTH 667 0
DWIDTH 8 0
BBX 7 9 1 0
BITMAP
10
10
28
28
44
44
7C
82
82
ENDCHAR
STARTCHAR B
ENCODING 66
SWIDTH 667 0
DWIDTH 8 0
BBX 7 9 1 0
BITMAP
FC
82
82
82
FC
82
82
82
FC
ENDCHAR
STARTCHAR C
ENCODING 67
SWIDTH 667 0
DWIDTH 8 0
BBX 7 9 1 0
BITMAP
7C
82
80
80
80
80
80
82
7C
ENDCHAR
STARTCHAR D
ENCODING 68
SWIDTH 667 0
DWIDTH 8 0
BBX 7 9 1 0
BITMAP
F8
84
82
82
82
82
82
84
F8
ENDCHAR
STARTCHAR E
ENCODING 69
SWIDTH 667 0
DWIDTH 8 0
BBX 6 9 1 0
BITMAP
FC
80
80
80
F8
80
80
80
FC
ENDCHAR
STARTCHAR F
ENCODING 70
SWIDTH 583 0
DWIDTH 7 0
BBX 6 9 1 0
BITMAP
FC
80
80
80
F8
80
80
80
80
ENDCHAR
STARTCHAR G
ENCODING 71
SWIDTH 750 0
DWIDTH 9 0
BBX 7 9 1 0
BITMAP
7C
82
80
80
9E
82
82
86
7A
ENDCHAR
STARTCHAR H
ENCODING 72
SWIDTH 667 0
DWIDTH 8 0
BBX 7 9 1 0
BITMAP
82
82
82
82
FE
82
82
82
82
ENDCHAR
STARTCHAR I
ENCODING 73
SWIDTH 250 0
DWIDTH 3 0
BBX 1 9 1 0
BITMAP
80
80
80
80
80
80
80
80
80
ENDCHAR
STARTCHAR J
ENCODING 74
SWIDTH 500 0
DWIDTH 6 0
BBX 5 9 1 0
BITMAP
08
08
08
08
08
08
88
88
70
ENDCHAR
STARTCHAR K
ENCODING 75
SWIDTH 667 0
DWIDTH 8 0
BBX 7 9 1 0
BITMAP
84
88
90
E0
A0
90
88
84
82
ENDCHAR
STARTCHAR L
ENCODING 76
SWIDTH 583 0
DWIDTH 7 0
BBX 6 9 1 0
BITMAP
80
80
80
80
80
80
80
80
FC
ENDCHAR
STARTCHAR M
ENCODING 77
SWIDTH 833 0
DWIDTH 10 0
BBX 9 9 1 0
BITMAP
8080
8080
C180
A280
A280
9480
8880
8880
8080
ENDCHAR
STARTCHAR N
ENCODING 78
SWIDTH 667 0
DWIDTH 8 0
BBX 7 9 1 0
BITMAP
82
C2
C2
A2
92
92
8A
86
86
ENDCHAR
STARTCHAR O
ENCODING 79
SWIDTH 750 0
DWIDTH 9 0
BBX 8 9 1 0
BITMAP
7E
81
81
81
81
81
81
81
7E
ENDCHAR
STARTCHAR P
ENCODING 80
SWIDTH 667 0
DWIDTH 8 0
BBX 7 9 1 0
BITMAP
FC
82
82
82
FC
80
80
80
80
ENDCHAR
STARTCHAR Q
ENCODING 81
SWIDTH 750 0
DWIDTH 9 0
BBX 8 10 1 -1
BITMAP
7E
81
81
81
81
81
85
83
7E
01
ENDCHAR
STARTCHAR R
ENCODING 82
SWIDTH 667 0
DWIDTH 8 0
BBX 7 9 1 0
BITMAP
FC
82
82
82
FC
82
82
82
82
ENDCHAR
STARTCHAR S
ENCODING 83
SWIDTH 667 0
DWIDTH 8 0
BBX 7 9 1 0
BITMAP
7C
82
80
80
7C
02
02
82
7C
ENDCHAR
STARTCHAR T
ENCODING 84
SWIDTH 667 0
DWIDTH 8 0
BBX 7 9 1 0
BITMAP
FE
10
10
10
10
10
10
10
10
ENDCHAR
STARTCHAR U
ENCODING 85
SWIDTH 667 0
DWIDTH 8 0
BBX 7 9 1 0
BITMAP
82
82
82
82
82
82
82
82
7C
ENDCHAR
STARTCHAR V
ENCODING 86
SWIDTH 667 0
DWIDTH 8 0
BBX 7 9 1 0
BITMAP
82
82
44
44
44
28
28
10
10
ENDCHAR
STARTCHAR W
ENCODING 87
SWIDTH 1000 0
DWIDTH 12 0
BBX 11 9 1 0
BITMAP
8020
8020
4440
4440
4440
2A80
2A80
1100
1100
ENDCHAR
STARTCHAR X
ENCODING 88
SWIDTH 667 0
DWIDTH 8 0
BBX 7 9 1 0
BITMAP
82
82
44
28
10
28
44
82
82
ENDCHAR
STARTCHAR Y
ENCODING 89
SWIDTH 667 0
DWIDTH 8 0
BBX 7 9 1 0
BITMAP
82
82
44
28
10
10
10
10
10
ENDCHAR
STARTCHAR Z
ENCODING 90
SWIDTH 583 0
DWIDTH 7 0
BBX 6 9 1 0
BITMAP
FC
04
04
08
10
20
40
80
FC
ENDCHAR
STARTCHAR bracketleft
ENCODING 91
SWIDTH 250 0
DWIDTH 3 0
BBX 2 11 1 -2
BITMAP
C0
80
80
80
80
80
80
80
80
80
C0
ENDCHAR
STARTCHAR backslash
ENCODING 92
SWIDTH 250 0
DWIDTH 3 0
BBX 2 9 1 0
BITMAP
80
80
80
80
C0
40
40
40
40
ENDCHAR
STARTCHAR bracketright
ENCODING 93
SWIDTH 250 0
DWIDTH 3 0
BBX 2 11 1 -2
BITMAP
C0
40
40
40
40
40
40
40
40
40
C0
ENDCHAR
STARTCHAR asciicircum
ENCODING 94
SWIDTH 500 0
DWIDTH 6 0
BBX 5 3 1 7
BITMAP
20
50
88
ENDCHAR
STARTCHAR underscore
ENCODING 95
SWIDTH 500 0
DWIDTH 6 0
BBX 6 1 0 -2
BITMAP
FC
ENDCHAR
STARTCHAR grave
ENCODING 96
SWIDTH 250 0
DWIDTH 3 0
BBX 2 2 1 7
BITMAP
80
40
ENDCHAR
STARTCHAR a
ENCODING 97
SWIDTH 500 0
DWIDTH 6 0
BBX 5 6 1 0
BITMAP
70
08
78
88
88
78
ENDCHAR
STARTCHAR b
ENCODING 98
SWIDTH 583 0
DWIDTH 7 0
BBX 6 9 1 0
BITMAP
80
80
80
F8
84
84
84
84
F8
ENDCHAR
STARTCHAR c
ENCODING 99
SWIDTH 500 0
DWIDTH 6 0
BBX 5 6 1 0
BITMAP
70
88
80
80
88
70
ENDCHAR
STARTCHAR d
ENCODING 100
SWIDTH 583 0
DWIDTH 7 0
BBX 6 9 1 0
BITMAP
04
04
04
7C
84
84
84
84
7C
ENDCHAR
STARTCHAR e
ENCODING 101
SWIDTH 500 0
DWIDTH 6 0
BBX 5 6 1 0
BITMAP
70
88
F8
80
88
70
ENDCHAR
STARTCHAR f
ENCODING 102
SWIDTH 333 0
DWIDTH 4 0
BBX 3 9 1 0
BITMAP
60
80
80
E0
80
80
80
80
80
ENDCHAR
STARTCHAR g
ENCODING 103
SWIDTH 583 0
DWIDTH 7 0
BBX 6 8 1 -2
BITMAP
7C
84
84
84
8C
74
04
F8
ENDCHAR
STARTCHAR h
ENCODING 104
SWIDTH 583 0
DWIDTH 7 0
BBX 6 9 1 0
BITMAP
80
80
80
B8
C4
84
84
84
84
ENDCHAR
STARTCHAR i
ENCODING 105
SWIDTH 250 0
DWIDTH 3 0
BBX 1 9 1 0
BITMAP
80
00
00
80
80
80
80
80
80
ENDCHAR
STARTCHAR j
ENCODING 106
SWIDTH 250 0
DWIDTH 3 0
BBX 1 11 1 -2
BITMAP
80
00
00
80
80
80
80
80
80
80
80
ENDCHAR
STARTCHAR k
ENCODING 107
SWIDTH 500 0
DWIDTH 6 0
BBX 5 9 1 0
BITMAP
80
80
80
90
A0
C0
A0
90
88
ENDCHAR
STARTCHAR l
ENCODING 108
SWIDTH 250 0
DWIDTH 3 0
BBX 1 9 1 0
BITMAP
80
80
80
80
80
80
80
80
80
ENDCHAR
STARTCHAR m
ENCODING 109
SWIDTH 833 0
DWIDTH 10 0
BBX 9 6 1 0
BITMAP
F700
8880
8880
8880
8880
8880
ENDCHAR
STARTCHAR n
ENCODING 110
SWIDTH 583 0
DWIDTH 7 0
BBX 6 6 1 0
BITMAP
B8
C4
84
84
84
84
ENDCHAR
STARTCHAR o
ENCODING 111
SWIDTH 500 0
DWIDTH 6 0
BBX 5 6 1 0
BITMAP
70
88
88
88
88
70
ENDCHAR
STARTCHAR p
ENCODING 112
SWIDTH 583 0
DWIDTH 7 0
BBX 6 8 1 -2
BITMAP
F8
84
84
84
84
F8
80
80
ENDCHAR
STARTCHAR q
ENCODING 113
SWIDTH 583 0
DWIDTH 7 0
BBX 6 8 1 -2
BITMAP
7C
84
84
84
8C
74
04
04
ENDCHAR
STARTCHAR r
ENCODING 114
SWIDTH 333 0
DWIDTH 4 0
BBX 3 6 1 0
BITMAP
E0
80
80
80
80
80
ENDCHAR
STARTCHAR s
ENCODING 115
SWIDTH 500 0
DWIDTH 6 0
BBX 5 6 1 0
BITMAP
70
88
60
10
88
70
ENDCHAR
STARTCHAR t
ENCODING 116
SWIDTH 250 0
DWIDTH 3 0
BBX 2 8 1 0
BITMAP
80
80
C0
80
80
80
80
40
ENDCHAR
STARTCHAR u
ENCODING 117
SWIDTH 583 0
DWIDTH 7 0
BBX 6 6 1 0
BITMAP
84
84
84
84
8C
74
ENDCHAR
STARTCHAR v
ENCODING 118
SWIDTH 500 0
DWIDTH 6 0
BBX 5 6 1 0
BITMAP
88
88
50
50
20
20
ENDCHAR
STARTCHAR w
ENCODING 119
SWIDTH 667 0
DWIDTH 8 0
BBX 7 6 1 0
BITMAP
92
92
AA
AA
44
44
ENDCHAR
STARTCHAR x
ENCODING 120
SWIDTH 500 0
DWIDTH 6 0
BBX 5 6 1 0
BITMAP
88
50
20
20
50
88
ENDCHAR
STARTCHAR y
ENCODING 121
SWIDTH 500 0
DWIDTH 6 0
BBX 5 8 1 -2
BITMAP
88
88
88
88
50
20
40
80
ENDCHAR
STARTCHAR z
ENCODING 122
SWIDTH 500 0
DWIDTH 6 0
BBX 5 6 1 0
BITMAP
F8
10
20
40
80
F8
ENDCHAR
STARTCHAR braceleft
ENCODING 123
SWIDTH 333 0
DWIDTH 4 0
BBX 3 11 1 -1
BITMAP
20
40
40
40
40
80
40
40
40
40
20
ENDCHAR
STARTCHAR bar
ENCODING 124
SWIDTH 250 0
DWIDTH 3 0
BBX 1 10 1 -1
BITMAP
80
80
80
80
80
80
80
80
80
80
ENDCHAR
STARTCHAR braceright
ENCODING 125
SWIDTH 333 0
DWIDTH 4 0
BBX 3 11 1 -1
BITMAP
80
40
40
40
40
20
40
40
40
40
80
ENDCHAR
STARTCHAR asciitilde
ENCODING 126
SWIDTH 417 0
DWIDTH 5 0
BBX 4 2 1 7
BITMAP
50
A0
ENDCHAR
STARTCHAR uni007F
ENCODING 127
SWIDTH 250 0
DWIDTH 3 0
BBX 2 9 1 -1
BITMAP
C0
C0
C0
C0
C0
C0
C0
C0
C0
ENDCHAR
STARTCHAR Euro
ENCODING 128
SWIDTH 250 0
DWIDTH 3 0
BBX 2 9 1 -1
BITMAP
C0
C0
C0
C0
C0
C0
C0
C0
C0
ENDCHAR
STARTCHAR NameMe.129
ENCODING 129
SWIDTH 250 0
DWIDTH 3 0
BBX 2 9 1 -1
BITMAP
C0
C0
C0
C0
C0
C0
C0
C0
C0
ENDCHAR
STARTCHAR quotesinglbase
ENCODING 130
SWIDTH 250 0
DWIDTH 3 0
BBX 2 2 1 -1
BITMAP
40
80
ENDCHAR
STARTCHAR florin
ENCODING 131
SWIDTH 583 0
DWIDTH 7 0
BBX 6 10 1 -1
BITMAP
0C
10
10
7C
10
10
20
20
20
C0
ENDCHAR
STARTCHAR quotedblbase
ENCODING 132
SWIDTH 417 0
DWIDTH 5 0
BBX 4 2 1 -1
BITMAP
50
A0
ENDCHAR
STARTCHAR ellipsis
ENCODING 133
SWIDTH 500 0
DWIDTH 6 0
BBX 5 1 1 0
BITMAP
A8
ENDCHAR
STARTCHAR dagger
ENCODING 134
SWIDTH 500 0
DWIDTH 6 0
BBX 5 10 1 -1
BITMAP
20
20
F8
20
20
20
20
20
20
20
ENDCHAR
STARTCHAR daggerdbl
ENCODING 135
SWIDTH 500 0
DWIDTH 6 0
BBX 5 10 1 -1
BITMAP
20
20
F8
20
20
20
20
F8
20
20
ENDCHAR
STARTCHAR circumflex
ENCODING 136
SWIDTH 500 0
DWIDTH 6 0
BBX 5 3 1 7
BITMAP
20
50
88
ENDCHAR
STARTCHAR perthousand
ENCODING 137
SWIDTH 1000 0
DWIDTH 12 0
BBX 11 9 1 0
BITMAP
6100
9200
9400
9800
6CC0
1320
3320
5320
8CC0
ENDCHAR
STARTCHAR Scaron
ENCODING 138
SWIDTH 667 0
DWIDTH 8 0
BBX 7 11 1 0
BITMAP
48
30
7C
82
80
80
7C
02
02
82
7C
ENDCHAR
STARTCHAR guilsinglleft
ENCODING 139
SWIDTH 500 0
DWIDTH 6 0
BBX 4 7 1 0
BITMAP
10
20
40
80
40
20
10
ENDCHAR
STARTCHAR OE
ENCODING 140
SWIDTH 917 0
DWIDTH 11 0
BBX 10 9 1 0
BITMAP
7FC0
8800
8800
8800
8F80
8800
8800
8800
7FC0
ENDCHAR
STARTCHAR NameMe.141
ENCODING 141
SWIDTH 250 0
DWIDTH 3 0
BBX 2 9 1 -1
BITMAP
C0
C0
C0
C0
C0
C0
C0
C0
C0
ENDCHAR
STARTCHAR Zcaron
ENCODING 142
SWIDTH 250 0
DWIDTH 3 0
BBX 2 9 1 -1
BITMAP
C0
C0
C0
C0
C0
C0
C0
C0
C0
ENDCHAR
STARTCHAR NameMe.143
ENCODING 143
SWIDTH 250 0
DWIDTH 3 0
BBX 2 9 1 -1
BITMAP
C0
C0
C0
C0
C0
C0
C0
C0
C0
ENDCHAR
STARTCHAR NameMe.144
ENCODING 144
SWIDTH 250 0
DWIDTH 3 0
BBX 2 9 1 -1
BITMAP
C0
C0
C0
C0
C0
C0
C0
C0
C0
ENDCHAR
STARTCHAR quoteleft
ENCODING 145
SWIDTH 250 0
DWIDTH 3 0
BBX 2 3 1 5
BITMAP
40
80
C0
ENDCHAR
STARTCHAR quoteright
ENCODING 146
SWIDTH 250 0
DWIDTH 3 0
BBX 2 3 1 5
BITMAP
C0
40
80
ENDCHAR
STARTCHAR quotedblleft
ENCODING 147
SWIDTH 417 0
DWIDTH 5 0
BBX 4 3 1 5
BITMAP
50
A0
F0
ENDCHAR
STARTCHAR quotedblright
ENCODING 148
SWIDTH 417 0
DWIDTH 5 0
BBX 4 3 1 5
BITMAP
F0
50
A0
ENDCHAR
STARTCHAR bullet
ENCODING 149
SWIDTH 333 0
DWIDTH 4 0
BBX 3 3 1 2
BITMAP
E0
E0
E0
ENDCHAR
STARTCHAR endash
ENCODING 150
SWIDTH 500 0
DWIDTH 6 0
BBX 5 1 1 2
BITMAP
F8
ENDCHAR
STARTCHAR emdash
ENCODING 151
SWIDTH 1000 0
DWIDTH 12 0
BBX 11 1 1 2
BITMAP
FFE0
ENDCHAR
STARTCHAR tilde
ENCODING 152
SWIDTH 417 0
DWIDTH 5 0
BBX 4 2 1 6
BITMAP
50
A0
ENDCHAR
STARTCHAR trademark
ENCODING 153
SWIDTH 1000 0
DWIDTH 12 0
BBX 11 5 1 4
BITMAP
FE60
25A0
25A0
2420
2420
ENDCHAR
STARTCHAR scaron
ENCODING 154
SWIDTH 500 0
DWIDTH 6 0
BBX 5 8 1 0
BITMAP
50
20
70
88
60
10
88
70
ENDCHAR
STARTCHAR guilsinglright
ENCODING 155
SWIDTH 500 0
DWIDTH 6 0
BBX 4 7 1 0
BITMAP
80
40
20
10
20
40
80
ENDCHAR
STARTCHAR oe
ENCODING 156
SWIDTH 833 0
DWIDTH 10 0
BBX 9 6 1 0
BITMAP
7700
8880
8F80
8800
8800
7700
ENDCHAR
STARTCHAR NameMe.157
ENCODING 157
SWIDTH 250 0
DWIDTH 3 0
BBX 2 9 1 -1
BITMAP
C0
C0
C0
C0
C0
C0
C0
C0
C0
ENDCHAR
STARTCHAR zcaron
ENCODING 158
SWIDTH 250 0
DWIDTH 3 0
BBX 2 9 1 -1
BITMAP
C0
C0
C0
C0
C0
C0
C0
C0
C0
ENDCHAR
STARTCHAR Ydieresis
ENCODING 159
SWIDTH 667 0
DWIDTH 8 0
BBX 7 11 1 0
BITMAP
44
00
82
82
44
28
10
10
10
10
10
ENDCHAR
STARTCHAR uni00A0
ENCODING 160
SWIDTH 250 0
DWIDTH 3 0
BBX 1 1 2 -2
BITMAP
00
ENDCHAR
STARTCHAR exclamdown
ENCODING 161
SWIDTH 250 0
DWIDTH 3 0
BBX 1 9 1 -2
BITMAP
80
00
80
80
80
80
80
80
80
ENDCHAR
STARTCHAR cent
ENCODING 162
SWIDTH 500 0
DWIDTH 6 0
BBX 5 8 1 -1
BITMAP
10
70
88
80
80
88
70
40
ENDCHAR
STARTCHAR sterling
ENCODING 163
SWIDTH 500 0
DWIDTH 6 0
BBX 5 9 1 0
BITMAP
60
90
80
40
E0
40
80
80
F8
ENDCHAR
STARTCHAR currency
ENCODING 164
SWIDTH 500 0
DWIDTH 6 0
BBX 5 7 1 2
BITMAP
88
70
88
88
88
70
88
ENDCHAR
STARTCHAR yen
ENCODING 165
SWIDTH 500 0
DWIDTH 6 0
BBX 5 9 1 0
BITMAP
88
88
88
50
F8
20
F8
20
20
ENDCHAR
STARTCHAR brokenbar
ENCODING 166
SWIDTH 167 0
DWIDTH 2 0
BBX 1 11 1 -2
BITMAP
80
80
80
80
80
00
80
80
80
80
80
ENDCHAR
STARTCHAR section
ENCODING 167
SWIDTH 500 0
DWIDTH 6 0
BBX 5 10 1 -1
BITMAP
70
88
40
A0
90
48
28
10
88
70
ENDCHAR
STARTCHAR dieresis
ENCODING 168
SWIDTH 333 0
DWIDTH 4 0
BBX 3 1 1 7
BITMAP
A0
ENDCHAR
STARTCHAR copyright
ENCODING 169
SWIDTH 750 0
DWIDTH 9 0
BBX 8 7 1 2
BITMAP
3C
42
99
A1
99
42
3C
ENDCHAR
STARTCHAR ordfeminine
ENCODING 170
SWIDTH 333 0
DWIDTH 4 0
BBX 3 6 1 3
BITMAP
C0
60
A0
E0
00
E0
ENDCHAR
STARTCHAR guillemotleft
ENCODING 171
SWIDTH 500 0
DWIDTH 6 0
BBX 5 5 1 0
BITMAP
28
50
A0
50
28
ENDCHAR
STARTCHAR logicalnot
ENCODING 172
SWIDTH 583 0
DWIDTH 7 0
BBX 6 2 1 2
BITMAP
FC
04
ENDCHAR
STARTCHAR uni00AD
ENCODING 173
SWIDTH 333 0
DWIDTH 4 0
BBX 3 3 1 4
BITMAP
40
A0
40
ENDCHAR
STARTCHAR registered
ENCODING 174
SWIDTH 667 0
DWIDTH 8 0
BBX 7 7 1 2
BITMAP
38
44
BA
B2
AA
44
38
ENDCHAR
STARTCHAR macron
ENCODING 175
SWIDTH 500 0
DWIDTH 6 0
BBX 6 1 0 9
BITMAP
FC
ENDCHAR
STARTCHAR degree
ENCODING 176
SWIDTH 333 0
DWIDTH 4 0
BBX 3 3 1 6
BITMAP
40
A0
40
ENDCHAR
STARTCHAR plusminus
ENCODING 177
SWIDTH 583 0
DWIDTH 7 0
BBX 5 7 1 0
BITMAP
20
20
F8
20
20
00
F8
ENDCHAR
STARTCHAR uni00B2
ENCODING 178
SWIDTH 333 0
DWIDTH 4 0
BBX 3 5 1 4
BITMAP
C0
20
40
80
E0
ENDCHAR
STARTCHAR uni00B3
ENCODING 179
SWIDTH 250 0
DWIDTH 3 0
BBX 3 5 0 4
BITMAP
C0
20
40
20
C0
ENDCHAR
STARTCHAR acute
ENCODING 180
SWIDTH 333 0
DWIDTH 4 0
BBX 2 2 1 7
BITMAP
40
80
ENDCHAR
STARTCHAR mu
ENCODING 181
SWIDTH 500 0
DWIDTH 6 0
BBX 5 8 1 -2
BITMAP
90
90
90
90
90
E8
80
80
ENDCHAR
STARTCHAR paragraph
ENCODING 182
SWIDTH 500 0
DWIDTH 6 0
BBX 5 10 1 -1
BITMAP
78
F8
F8
F8
78
28
28
28
28
28
ENDCHAR
STARTCHAR periodcentered
ENCODING 183
SWIDTH 250 0
DWIDTH 3 0
BBX 1 1 1 4
BITMAP
80
ENDCHAR
STARTCHAR cedilla
ENCODING 184
SWIDTH 333 0
DWIDTH 4 0
BBX 2 2 1 -2
BITMAP
40
80
ENDCHAR
STARTCHAR uni00B9
ENCODING 185
SWIDTH 250 0
DWIDTH 3 0
BBX 2 5 1 4
BITMAP
40
C0
40
40
40
ENDCHAR
STARTCHAR ordmasculine
ENCODING 186
SWIDTH 333 0
DWIDTH 4 0
BBX 3 6 1 3
BITMAP
E0
A0
A0
E0
00
E0
ENDCHAR
STARTCHAR guillemotright
ENCODING 187
SWIDTH 500 0
DWIDTH 6 0
BBX 5 5 1 0
BITMAP
A0
50
28
50
A0
ENDCHAR
STARTCHAR onequarter
ENCODING 188
SWIDTH 833 0
DWIDTH 10 0
BBX 9 9 1 0
BITMAP
4080
C100
4200
4400
4900
1300
2500
4780
8100
ENDCHAR
STARTCHAR onehalf
ENCODING 189
SWIDTH 833 0
DWIDTH 10 0
BBX 9 9 1 0
BITMAP
4080
C100
4200
4400
4B00
1080
2100
4200
8380
ENDCHAR
STARTCHAR threequarters
ENCODING 190
SWIDTH 833 0
DWIDTH 10 0
BBX 9 9 1 0
BITMAP
C080
2100
4200
2400
C900
1300
2500
4780
8100
ENDCHAR
STARTCHAR questiondown
ENCODING 191
SWIDTH 500 0
DWIDTH 6 0
BBX 5 9 1 -2
BITMAP
20
00
20
20
40
80
80
88
70
ENDCHAR
STARTCHAR Agrave
ENCODING 192
SWIDTH 583 0
DWIDTH 7 0
BBX 7 11 0 0
BITMAP
20
10
10
10
28
28
44
44
7C
82
82
ENDCHAR
STARTCHAR Aacute
ENCODING 193
SWIDTH 583 0
DWIDTH 7 0
BBX 7 11 0 0
BITMAP
08
10
10
10
28
28
44
44
7C
82
82
ENDCHAR
STARTCHAR Acircumflex
ENCODING 194
SWIDTH 583 0
DWIDTH 7 0
BBX 7 11 0 0
BITMAP
10
28
10
10
28
28
44
44
7C
82
82
ENDCHAR
STARTCHAR Atilde
ENCODING 195
SWIDTH 583 0
DWIDTH 7 0
BBX 7 11 0 0
BITMAP
34
58
10
10
28
28
44
44
7C
82
82
ENDCHAR
STARTCHAR Adieresis
ENCODING 196
SWIDTH 583 0
DWIDTH 7 0
BBX 7 11 0 0
BITMAP
44
00
10
10
28
28
44
44
7C
82
82
ENDCHAR
STARTCHAR Aring
ENCODING 197
SWIDTH 583 0
DWIDTH 7 0
BBX 7 11 0 0
BITMAP
10
28
10
10
28
28
44
44
7C
82
82
ENDCHAR
STARTCHAR AE
ENCODING 198
SWIDTH 917 0
DWIDTH 11 0
BBX 10 9 1 0
BITMAP
1FC0
1400
2400
2400
4700
7C00
4400
8400
87C0
ENDCHAR
STARTCHAR Ccedilla
ENCODING 199
SWIDTH 583 0
DWIDTH 7 0
BBX 6 11 1 -2
BITMAP
78
84
80
80
80
80
80
84
78
10
30
ENDCHAR
STARTCHAR Egrave
ENCODING 200
SWIDTH 583 0
DWIDTH 7 0
BBX 5 11 1 0
BITMAP
40
20
F8
80
80
80
F0
80
80
80
F8
ENDCHAR
STARTCHAR Eacute
ENCODING 201
SWIDTH 583 0
DWIDTH 7 0
BBX 5 11 1 0
BITMAP
10
20
F8
80
80
80
F0
80
80
80
F8
ENDCHAR
STARTCHAR Ecircumflex
ENCODING 202
SWIDTH 583 0
DWIDTH 7 0
BBX 5 11 1 0
BITMAP
20
50
F8
80
80
80
F0
80
80
80
F8
ENDCHAR
STARTCHAR Edieresis
ENCODING 203
SWIDTH 583 0
DWIDTH 7 0
BBX 5 11 1 0
BITMAP
88
00
F8
80
80
80
F0
80
80
80
F8
ENDCHAR
STARTCHAR Igrave
ENCODING 204
SWIDTH 250 0
DWIDTH 3 0
BBX 2 11 0 0
BITMAP
80
40
00
40
40
40
40
40
40
40
40
ENDCHAR
STARTCHAR Iacute
ENCODING 205
SWIDTH 250 0
DWIDTH 3 0
BBX 2 11 1 0
BITMAP
40
80
00
80
80
80
80
80
80
80
80
ENDCHAR
STARTCHAR Icircumflex
ENCODING 206
SWIDTH 250 0
DWIDTH 3 0
BBX 3 11 0 0
BITMAP
40
A0
00
40
40
40
40
40
40
40
40
ENDCHAR
STARTCHAR Idieresis
ENCODING 207
SWIDTH 250 0
DWIDTH 3 0
BBX 3 11 0 0
BITMAP
A0
00
40
40
40
40
40
40
40
40
40
ENDCHAR
STARTCHAR Eth
ENCODING 208
SWIDTH 667 0
DWIDTH 8 0
BBX 7 9 0 0
BITMAP
78
44
42
42
F2
42
42
44
78
ENDCHAR
STARTCHAR Ntilde
ENCODING 209
SWIDTH 667 0
DWIDTH 8 0
BBX 6 11 1 0
BITMAP
64
98
84
C4
C4
A4
A4
94
8C
8C
84
ENDCHAR
STARTCHAR Ograve
ENCODING 210
SWIDTH 667 0
DWIDTH 8 0
BBX 6 11 1 0
BITMAP
20
10
78
84
84
84
84
84
84
84
78
ENDCHAR
STARTCHAR Oacute
ENCODING 211
SWIDTH 667 0
DWIDTH 8 0
BBX 6 11 1 0
BITMAP
10
20
78
84
84
84
84
84
84
84
78
ENDCHAR
STARTCHAR Ocircumflex
ENCODING 212
SWIDTH 667 0
DWIDTH 8 0
BBX 6 11 1 0
BITMAP
30
48
78
84
84
84
84
84
84
84
78
ENDCHAR
STARTCHAR Otilde
ENCODING 213
SWIDTH 667 0
DWIDTH 8 0
BBX 6 11 1 0
BITMAP
64
98
78
84
84
84
84
84
84
84
78
ENDCHAR
STARTCHAR Odieresis
ENCODING 214
SWIDTH 667 0
DWIDTH 8 0
BBX 6 11 1 0
BITMAP
48
00
78
84
84
84
84
84
84
84
78
ENDCHAR
STARTCHAR multiply
ENCODING 215
SWIDTH 500 0
DWIDTH 6 0
BBX 5 5 1 1
BITMAP
88
50
20
50
88
ENDCHAR
STARTCHAR Oslash
ENCODING 216
SWIDTH 667 0
DWIDTH 8 0
BBX 6 9 1 0
BITMAP
7C
8C
94
94
A4
A4
C4
C4
F8
ENDCHAR
STARTCHAR Ugrave
ENCODING 217
SWIDTH 667 0
DWIDTH 8 0
BBX 6 11 1 0
BITMAP
20
10
84
84
84
84
84
84
84
84
78
ENDCHAR
STARTCHAR Uacute
ENCODING 218
SWIDTH 667 0
DWIDTH 8 0
BBX 6 11 1 0
BITMAP
10
20
84
84
84
84
84
84
84
84
78
ENDCHAR
STARTCHAR Ucircumflex
ENCODING 219
SWIDTH 667 0
DWIDTH 8 0
BBX 6 11 1 0
BITMAP
30
48
84
84
84
84
84
84
84
84
78
ENDCHAR
STARTCHAR Udieresis
ENCODING 220
SWIDTH 667 0
DWIDTH 8 0
BBX 6 11 1 0
BITMAP
48
00
84
84
84
84
84
84
84
84
78
ENDCHAR
STARTCHAR Yacute
ENCODING 221
SWIDTH 583 0
DWIDTH 7 0
BBX 7 11 0 0
BITMAP
08
10
82
82
44
28
10
10
10
10
10
ENDCHAR
STARTCHAR Thorn
ENCODING 222
SWIDTH 667 0
DWIDTH 8 0
BBX 6 9 1 0
BITMAP
80
80
F8
84
84
84
F8
80
80
ENDCHAR
STARTCHAR germandbls
ENCODING 223
SWIDTH 583 0
DWIDTH 7 0
BBX 6 9 1 0
BITMAP
70
88
88
88
B8
84
84
84
B8
ENDCHAR
STARTCHAR agrave
ENCODING 224
SWIDTH 500 0
DWIDTH 6 0
BBX 5 9 1 0
BITMAP
40
20
00
70
08
78
88
88
78
ENDCHAR
STARTCHAR aacute
ENCODING 225
SWIDTH 500 0
DWIDTH 6 0
BBX 5 9 1 0
BITMAP
10
20
00
70
08
78
88
88
78
ENDCHAR
STARTCHAR acircumflex
ENCODING 226
SWIDTH 500 0
DWIDTH 6 0
BBX 5 9 1 0
BITMAP
20
50
00
70
08
78
88
88
78
ENDCHAR
STARTCHAR atilde
ENCODING 227
SWIDTH 500 0
DWIDTH 6 0
BBX 5 9 1 0
BITMAP
68
B0
00
70
08
78
88
88
78
ENDCHAR
STARTCHAR adieresis
ENCODING 228
SWIDTH 500 0
DWIDTH 6 0
BBX 5 9 1 0
BITMAP
48
00
00
70
08
78
88
88
78
ENDCHAR
STARTCHAR aring
ENCODING 229
SWIDTH 500 0
DWIDTH 6 0
BBX 5 10 1 0
BITMAP
20
50
20
00
70
08
78
88
88
78
ENDCHAR
STARTCHAR ae
ENCODING 230
SWIDTH 833 0
DWIDTH 10 0
BBX 9 6 1 0
BITMAP
7700
0880
7F80
8800
8880
7700
ENDCHAR
STARTCHAR ccedilla
ENCODING 231
SWIDTH 500 0
DWIDTH 6 0
BBX 5 8 1 -2
BITMAP
70
88
80
80
88
70
20
60
ENDCHAR
STARTCHAR egrave
ENCODING 232
SWIDTH 500 0
DWIDTH 6 0
BBX 5 9 1 0
BITMAP
40
20
00
70
88
F8
80
88
70
ENDCHAR
STARTCHAR eacute
ENCODING 233
SWIDTH 500 0
DWIDTH 6 0
BBX 5 9 1 0
BITMAP
10
20
00
70
88
F8
80
88
70
ENDCHAR
STARTCHAR ecircumflex
ENCODING 234
SWIDTH 500 0
DWIDTH 6 0
BBX 5 9 1 0
BITMAP
20
50
00
70
88
F8
80
88
70
ENDCHAR
STARTCHAR edieresis
ENCODING 235
SWIDTH 500 0
DWIDTH 6 0
BBX 5 9 1 0
BITMAP
88
00
00
70
88
F8
80
88
70
ENDCHAR
STARTCHAR igrave
ENCODING 236
SWIDTH 167 0
DWIDTH 2 0
BBX 2 9 0 0
BITMAP
80
40
00
40
40
40
40
40
40
ENDCHAR
STARTCHAR iacute
ENCODING 237
SWIDTH 333 0
DWIDTH 4 0
BBX 2 9 2 0
BITMAP
40
80
00
80
80
80
80
80
80
ENDCHAR
STARTCHAR icircumflex
ENCODING 238
SWIDTH 333 0
DWIDTH 4 0
BBX 3 9 1 0
BITMAP
40
A0
00
40
40
40
40
40
40
ENDCHAR
STARTCHAR idieresis
ENCODING 239
SWIDTH 333 0
DWIDTH 4 0
BBX 3 9 1 0
BITMAP
A0
00
00
40
40
40
40
40
40
ENDCHAR
STARTCHAR eth
ENCODING 240
SWIDTH 500 0
DWIDTH 6 0
BBX 5 9 1 0
BITMAP
50
20
50
10
78
88
88
88
70
ENDCHAR
STARTCHAR ntilde
ENCODING 241
SWIDTH 500 0
DWIDTH 6 0
BBX 5 9 1 0
BITMAP
68
B0
00
B0
C8
88
88
88
88
ENDCHAR
STARTCHAR ograve
ENCODING 242
SWIDTH 500 0
DWIDTH 6 0
BBX 5 9 1 0
BITMAP
40
20
00
70
88
88
88
88
70
ENDCHAR
STARTCHAR oacute
ENCODING 243
SWIDTH 500 0
DWIDTH 6 0
BBX 5 9 1 0
BITMAP
10
20
00
70
88
88
88
88
70
ENDCHAR
STARTCHAR ocircumflex
ENCODING 244
SWIDTH 500 0
DWIDTH 6 0
BBX 5 9 1 0
BITMAP
20
50
00
70
88
88
88
88
70
ENDCHAR
STARTCHAR otilde
ENCODING 245
SWIDTH 500 0
DWIDTH 6 0
BBX 5 9 1 0
BITMAP
68
B0
00
70
88
88
88
88
70
ENDCHAR
STARTCHAR odieresis
ENCODING 246
SWIDTH 500 0
DWIDTH 6 0
BBX 5 9 1 0
BITMAP
88
00
00
70
88
88
88
88
70
ENDCHAR
STARTCHAR divide
ENCODING 247
SWIDTH 500 0
DWIDTH 6 0
BBX 5 5 1 1
BITMAP
20
00
F8
00
20
ENDCHAR
STARTCHAR oslash
ENCODING 248
SWIDTH 500 0
DWIDTH 6 0
BBX 5 6 1 0
BITMAP
78
98
A8
A8
C8
F0
ENDCHAR
STARTCHAR ugrave
ENCODING 249
SWIDTH 500 0
DWIDTH 6 0
BBX 5 9 1 0
BITMAP
40
20
00
88
88
88
88
98
68
ENDCHAR
STARTCHAR uacute
ENCODING 250
SWIDTH 500 0
DWIDTH 6 0
BBX 5 9 1 0
BITMAP
10
20
00
88
88
88
88
98
68
ENDCHAR
STARTCHAR ucircumflex
ENCODING 251
SWIDTH 500 0
DWIDTH 6 0
BBX 5 9 1 0
BITMAP
20
50
00
88
88
88
88
98
68
ENDCHAR
STARTCHAR udieresis
ENCODING 252
SWIDTH 500 0
DWIDTH 6 0
BBX 5 9 1 0
BITMAP
88
00
00
88
88
88
88
98
68
ENDCHAR
STARTCHAR yacute
ENCODING 253
SWIDTH 417 0
DWIDTH 5 0
BBX 5 11 0 -2
BITMAP
10
20
00
48
48
48
48
30
20
20
C0
ENDCHAR
STARTCHAR thorn
ENCODING 254
SWIDTH 583 0
DWIDTH 7 0
BBX 6 11 1 -2
BITMAP
80
80
80
B0
C8
84
84
C8
B0
80
80
ENDCHAR
STARTCHAR ydieresis
ENCODING 255
SWIDTH 417 0
DWIDTH 5 0
BBX 5 11 0 -2
BITMAP
48
00
00
48
48
48
48
30
20
20
C0
ENDCHAR
ENDFONT
